<?xml version="1.0" encoding="utf-8"?>
<!-- Svg Vector Icons : http://www.onlinewebfonts.com/icon -->
<!DOCTYPE svg PUBLIC "-//W3C//DTD SVG 1.1//EN" "http://www.w3.org/Graphics/SVG/1.1/DTD/svg11.dtd">
<svg version="1.1" xmlns="http://www.w3.org/2000/svg" xmlns:xlink="http://www.w3.org/1999/xlink" x="0px" y="0px" viewBox="0 0 256 256" enable-background="new 0 0 256 256" xml:space="preserve">
<metadata> Svg Vector Icons : http://www.onlinewebfonts.com/icon </metadata>
<g><g><g><path fill="#000000" d="M119.9,12.1c-12.3,1.2-20,2.8-29.8,6C59.1,28.4,33.7,51,20.3,80.3c-4.7,10.2-7.8,21-9.6,33.3c-1,6.2-0.8,23.6,0.2,30.3c2.6,17.2,8.9,33.5,18,47.2c5,7.5,8.6,12,14.9,18.2c30.6,30.7,75.7,42.2,117.8,30c14.5-4.2,29.5-12,41.8-21.8c5.5-4.4,14.4-13.4,18.5-18.9c13.1-17.2,20-33.6,23.6-56.4c0.3-2.2,0.6-8,0.6-14.3c0-10.7-0.2-13.3-2.1-22.9c-4.2-21.6-15.3-42.2-31.5-58.4c-18.2-18.2-41-29.6-67-33.5C139.6,12.3,124.3,11.6,119.9,12.1z M178.9,69.6c3.7,1.7,6.6,4.5,8.4,8.1c1.4,2.9,1.5,3.4,1.5,7.7c0,7.8,0.3,7.3-19,26.3L153.3,128l16.4,16.2c19.3,19,19,18.6,19,26.3c0,4-0.1,4.9-1.2,7.3c-3.3,7.2-11.2,11.4-18.9,10.1c-5.7-0.9-6.7-1.7-24.1-18.8c-8.9-8.7-16.3-15.8-16.5-15.8s-7.6,7.1-16.5,15.8c-12.7,12.5-16.7,16.1-18.7,17.1c-8.9,4.3-19.3,1-24-7.7c-1.5-2.8-1.6-3.1-1.6-7.8c0-8-0.4-7.5,19-26.6l16.4-16.2l-16.4-16.2c-19.3-19-19-18.6-19-26.3c0-4.3,0.1-4.8,1.5-7.7c1.8-3.6,4.6-6.4,8.4-8.2c2.3-1.1,3.1-1.2,7.6-1.2c7.9,0,7.7-0.1,26.8,18.7c8.8,8.6,16.2,15.7,16.4,15.7c0.3,0,7.7-7.1,16.5-15.8c13.1-12.8,16.5-16,18.7-17.1C168,67.5,174.2,67.5,178.9,69.6z"/></g></g></g>
</svg>